<?xml version="1.0" encoding="UTF-8" standalone="no"?>
<!-- Created with Inkscape (http://www.inkscape.org/) -->

<svg
   xmlns:dc="http://purl.org/dc/elements/1.1/"
   xmlns:cc="http://creativecommons.org/ns#"
   xmlns:rdf="http://www.w3.org/1999/02/22-rdf-syntax-ns#"
   xmlns:svg="http://www.w3.org/2000/svg"
   xmlns="http://www.w3.org/2000/svg"
   xmlns:sodipodi="http://sodipodi.sourceforge.net/DTD/sodipodi-0.dtd"
   xmlns:inkscape="http://www.inkscape.org/namespaces/inkscape"
   width="127.55905"
   height="127.55905"
   id="svg2"
   version="1.1"
   inkscape:version="0.48.3.1 r9886"
   sodipodi:docname="Neues Dokument 1">
  <defs
     id="defs4" />
  <sodipodi:namedview
     id="base"
     pagecolor="#ffffff"
     bordercolor="#666666"
     borderopacity="1.0"
     inkscape:pageopacity="0.0"
     inkscape:pageshadow="2"
     inkscape:zoom="1.979899"
     inkscape:cx="88.293819"
     inkscape:cy="75.277391"
     inkscape:document-units="px"
     inkscape:current-layer="layer1"
     showgrid="false"
     units="mm"
     inkscape:window-width="800"
     inkscape:window-height="649"
     inkscape:window-x="774"
     inkscape:window-y="239"
     inkscape:window-maximized="0" />
  <metadata
     id="metadata7">
    <rdf:RDF>
      <cc:Work
         rdf:about="">
        <dc:format>image/svg+xml</dc:format>
        <dc:type
           rdf:resource="http://purl.org/dc/dcmitype/StillImage" />
        <dc:title></dc:title>
      </cc:Work>
    </rdf:RDF>
  </metadata>
  <g
     inkscape:label="Ebene 1"
     inkscape:groupmode="layer"
     id="layer1"
     transform="translate(0,-924.80313)">
    <g
       style="font-size:40px;font-style:normal;font-weight:normal;line-height:125%;letter-spacing:0px;word-spacing:0px;fill:#000000;fill-opacity:1;stroke:none;font-family:Sans"
       id="text2985">
      <path
         d="m 34.326599,953.29919 c -0.02605,-0.0651 -0.05209,-0.12368 -0.07813,-0.17578 -0.02605,-0.0521 -0.05209,-0.11066 -0.07813,-0.17578 -0.338552,0.78127 -0.677094,1.56252 -1.015625,2.34375 -0.32553,0.78127 -0.618499,1.57554 -0.878906,2.38281 0.260407,0.0261 0.514313,0.0521 0.761719,0.0781 0.247385,0.026 0.48827,0.0586 0.722656,0.0977 l 0.820312,0.11718 c 0.273426,0.0651 0.553374,0.12371 0.839844,0.17578 0.286446,0.0391 0.579414,0.0781 0.878906,0.11719 -0.338554,-0.8203 -0.670585,-1.64061 -0.996093,-2.46094 -0.325533,-0.83331 -0.651054,-1.66665 -0.976563,-2.5 m -3.378906,7.71485 c -0.703132,1.60157 -1.497402,3.15756 -2.382813,4.66797 -0.8724,1.4974 -1.82292,2.9362 -2.851562,4.3164 -0.104169,0.14323 -0.208336,0.28646 -0.3125,0.42969 -0.09115,0.14323 -0.188804,0.28646 -0.292969,0.42969 l -1.582031,-2.8711 c 1.015623,-1.28906 1.979164,-2.59114 2.890625,-3.90625 0.911454,-1.31509 1.744786,-2.70181 2.5,-4.16015 0.429681,-0.8203 0.826816,-1.64713 1.191406,-2.48047 0.377597,-0.83332 0.74869,-1.66665 1.113281,-2.5 0.364575,-0.84634 0.729158,-1.69269 1.09375,-2.53906 0.364574,-0.84634 0.755199,-1.67967 1.171875,-2.5 0.221344,-0.40363 0.442698,-0.60545 0.664063,-0.60547 0.247384,-0.026 0.48827,0.1758 0.722656,0.60547 0.66405,1.66668 1.29556,3.32684 1.894531,4.98047 0.598944,1.64063 1.263006,3.27475 1.992188,4.90234 0.742171,1.66667 1.608056,3.22917 2.597656,4.6875 0.989564,1.44532 2.03123,2.87761 3.125,4.29687 0.05206,0.0912 0.09763,0.21485 0.136719,0.3711 l 0,0.0586 c 0.03904,0.22136 0.05206,0.42318 0.03906,0.60547 -2.1e-5,0.18229 -0.03257,0.31901 -0.09766,0.41016 -0.06513,0.0911 -0.149761,0.18229 -0.253906,0.27343 l -0.03906,0 c -0.06513,0.0261 -0.130229,0.0195 -0.195312,-0.0195 -0.0521,-0.026 -0.123719,-0.0521 -0.214844,-0.0781 -1.080749,-1.30208 -2.102883,-2.61719 -3.066406,-3.94531 -0.963559,-1.34115 -1.842464,-2.76042 -2.636719,-4.25782 l -0.234375,-0.46875 c -0.117202,-0.22134 -0.234389,-0.43619 -0.351562,-0.64453 -0.104181,-0.22134 -0.208348,-0.4427 -0.3125,-0.66406 l -0.07813,0 c -0.130223,10e-6 -0.266941,0.007 -0.410157,0.0195 -0.143242,10e-6 -0.279961,0.007 -0.410156,0.0195 l -0.175781,0 c -0.07814,0.013 -0.162773,0.026 -0.253906,0.0391 -0.09116,1e-5 -0.182305,1e-5 -0.273438,0 l -0.175781,0 c -0.182304,0.0261 -0.371106,0.0456 -0.566406,0.0586 -0.195324,10e-6 -0.384126,0.013 -0.566407,0.0391 0.09113,10e-6 0.117177,0.007 0.07813,0.0195 -0.117198,0.0521 -0.240896,0.0912 -0.371093,0.11719 -0.13022,0.013 -0.260428,0.0326 -0.390625,0.0586 -0.29949,10e-6 -0.644542,0.0651 -1.035157,0.19532 -0.390634,0.11719 -0.944019,0.27344 -1.660156,0.46875 l -0.01953,-0.42969"
         style="font-variant:normal;font-stretch:normal;text-align:center;text-anchor:middle;font-family:El Abogado Loco;-inkscape-font-specification:El Abogado Loco"
         id="path2992" />
      <path
         d="m 50.400818,957.28357 c 0.03906,-0.013 0.09765,-0.0586 0.175781,-0.13672 -0.02605,0.013 -0.04558,0.0261 -0.05859,0.0391 -5e-6,2e-5 -0.01303,0.007 -0.03906,0.0195 -0.104172,0.0521 -0.130214,0.0781 -0.07813,0.0781 m -4.667969,11.17187 c 0.859374,-1.82291 1.484373,-3.59374 1.875,-5.3125 0.403643,-1.71874 0.638018,-3.46353 0.703125,-5.23437 0.01302,-0.0911 0.01953,-0.18228 0.01953,-0.27344 0.01302,-0.0911 0.03255,-0.18879 0.05859,-0.29297 -0.02605,-0.27342 -0.0586,-0.54686 -0.09766,-0.82031 -0.03907,-0.28644 -0.09115,-0.5729 -0.15625,-0.85937 -0.02605,-0.0911 -0.07162,-0.23437 -0.136719,-0.42969 -0.05209,-0.1953 -0.07813,-0.36457 -0.07813,-0.50781 -0.02604,-0.22134 -0.0065,-0.42968 0.05859,-0.625 0.0651,-0.20832 0.149736,-0.40363 0.253906,-0.58594 l 0.05859,-0.0586 c 0.03906,-0.039 0.08463,-0.0586 0.136719,-0.0586 l 0.03906,0 c 0.117184,2e-5 0.21484,0.0586 0.292969,0.17578 0.09114,0.10418 0.169267,0.2409 0.234375,0.41016 0.0651,0.15626 0.123694,0.33855 0.175781,0.54687 0.05208,0.19533 0.09765,0.37762 0.136719,0.54688 -4e-6,10e-6 0.01302,-0.013 0.03906,-0.0391 l 0,0.0195 c 0.01302,-0.026 0.03906,-0.0586 0.07813,-0.0977 l 0.05859,-0.0586 c 0.260412,-0.2604 0.611974,-0.45572 1.054688,-0.58594 0.442702,-0.13019 0.911452,-0.21483 1.40625,-0.25391 0.494784,-0.0521 0.976554,-0.0781 1.445312,-0.0781 0.481762,10e-6 0.891918,10e-6 1.230469,0 0.208323,10e-6 0.416657,0.007 0.625,0.0195 0.208323,0.013 0.397125,0.0521 0.566406,0.11719 0.16926,0.0651 0.305979,0.17579 0.410156,0.33203 0.117177,0.15626 0.17577,0.37111 0.175782,0.64453 -1.2e-5,0.23439 -0.05861,0.44923 -0.175782,0.64453 -0.117198,0.18231 -0.292979,0.27345 -0.527343,0.27344 l -0.332032,0 c -0.468759,0.013 -0.944019,0.0651 -1.425781,0.15625 -0.481779,0.0912 -0.950529,0.19532 -1.40625,0.3125 -0.02605,10e-6 -0.05209,0.007 -0.07813,0.0195 -0.02605,0.013 -0.05209,0.0195 -0.07813,0.0195 -0.221361,0.0781 -0.403653,0.14324 -0.546875,0.19531 -0.143236,0.0391 -0.273444,0.0847 -0.390625,0.13672 -0.117194,0.0391 -0.247402,0.0912 -0.390625,0.15625 -0.130214,0.0521 -0.299485,0.13022 -0.507812,0.23438 l -0.05859,0.0586 c -6e-6,0.33855 -0.01954,0.65756 -0.05859,0.95703 -0.03907,0.28647 -0.07813,0.57293 -0.117187,0.85938 -0.03907,0.28647 -0.07813,0.57292 -0.117188,0.85937 -0.03907,0.27345 -0.0586,0.57293 -0.05859,0.89844 -0.01303,0.61199 -0.07813,1.2435 -0.195312,1.89453 -0.104172,0.63803 -0.24089,1.28256 -0.410156,1.93359 -0.156255,0.63803 -0.332036,1.27605 -0.527344,1.91407 -0.182296,0.63802 -0.364587,1.25 -0.546875,1.83593 -0.02605,0.0521 -0.03907,0.0977 -0.03906,0.13672 l -0.117187,0.35157 c -0.06511,0.18229 -0.130212,0.35807 -0.195313,0.52734 -0.06511,0.15625 -0.130211,0.31901 -0.195312,0.48828 -3e-6,0.0521 -0.01953,0.11719 -0.05859,0.19531 -0.02604,0.0781 -0.06511,0.15625 -0.117187,0.23438 -0.03907,0.0911 -0.07813,0.17578 -0.117188,0.2539 -0.02604,0.0912 -0.03907,0.16276 -0.03906,0.21485 l -1.835938,-2.40235"
         style="font-variant:normal;font-stretch:normal;text-align:center;text-anchor:middle;font-family:El Abogado Loco;-inkscape-font-specification:El Abogado Loco"
         id="path2994" />
      <path
         d="m 63.174255,956.38513 c -0.234381,0.0261 -0.468756,0.0456 -0.703125,0.0586 -0.23438,0.013 -0.468755,0.0195 -0.703125,0.0195 -0.117192,10e-6 -0.23438,10e-6 -0.351562,0 -0.117192,10e-6 -0.23438,-0.006 -0.351563,-0.0195 -0.06511,1.25001 -0.143233,2.4935 -0.234375,3.73046 -0.07813,1.23699 -0.117191,2.48699 -0.117187,3.75 0.01302,0.013 0.01953,0.0391 0.01953,0.0781 0.299475,0.46875 0.70312,0.90495 1.210938,1.30859 0.507806,0.39063 1.015618,0.73568 1.523437,1.03516 0.533847,0.3125 1.028638,0.69011 1.484375,1.13281 0.45572,0.44271 0.878897,0.90495 1.269531,1.38672 -0.01303,0.013 -0.01954,0.0326 -0.01953,0.0586 0.02603,0.10417 0.05207,0.21485 0.07813,0.33204 0.02603,0.11718 0.03905,0.24088 0.03906,0.37109 -1e-5,0.27344 -0.0586,0.5013 -0.175782,0.68359 -0.104176,0.19531 -0.286467,0.23438 -0.546875,0.11719 -0.01303,0.013 -0.01954,0.0326 -0.01953,0.0586 -0.533863,-0.55989 -1.087247,-1.05468 -1.660156,-1.48437 -0.572924,-0.42969 -1.197923,-0.83333 -1.875,-1.21094 -0.520839,-0.28645 -0.957036,-0.5664 -1.308594,-0.83984 -0.338545,-0.28646 -0.611983,-0.57292 -0.820312,-0.85938 -0.208337,-0.28645 -0.371097,-0.58593 -0.488282,-0.89843 -0.104169,-0.32552 -0.182294,-0.67708 -0.234375,-1.05469 l 0,-0.27344 c -2e-6,-0.026 -0.0065,-0.12369 -0.01953,-0.29297 -3e-6,-0.18228 -3e-6,-0.40364 0,-0.66406 -3e-6,-0.27343 -3e-6,-0.57291 0,-0.89844 -3e-6,-0.32551 -3e-6,-0.65103 0,-0.97656 l 0,-0.625 c -3e-6,-0.1953 -0.0065,-0.46223 -0.01953,-0.80078 -3e-6,-0.35155 -0.0065,-0.72916 -0.01953,-1.13281 -3e-6,-0.40364 -0.0065,-0.80728 -0.01953,-1.21094 -2e-6,-0.41666 -0.0065,-0.78775 -0.01953,-1.11328 -0.169273,-0.039 -0.390627,-0.0911 -0.664062,-0.15625 -0.260419,-0.0781 -0.520835,-0.17577 -0.78125,-0.29297 -0.260418,-0.1302 -0.488282,-0.29947 -0.683594,-0.50781 -0.182292,-0.20832 -0.273438,-0.46874 -0.273438,-0.78125 l 0,-0.13672 c 0,-0.22134 0.0651,-0.41665 0.195313,-0.58594 0.130208,-0.18228 0.32552,-0.24087 0.585937,-0.17578 0.221353,0.0521 0.397134,0.0977 0.527344,0.13672 0.143228,0.0391 0.319009,0.0716 0.527344,0.0977 -0.06511,-0.013 -0.136721,-0.026 -0.214844,-0.0391 -0.06511,-0.013 -0.09115,-0.0195 -0.07813,-0.0195 -2e-6,2e-5 0.0065,-0.007 0.01953,-0.0195 0.104165,-0.013 0.208332,-0.013 0.3125,0 0.117186,0.013 0.227863,0.0195 0.332032,0.0195 l 0.175781,0 c -3e-6,-0.14321 -0.0065,-0.28644 -0.01953,-0.42969 -3e-6,-0.15623 -3e-6,-0.30597 0,-0.44922 l 0,-1.8164 2.34375,0 c -0.02605,0.39064 -0.05209,0.78126 -0.07813,1.17187 -0.02605,0.37762 -0.05209,0.76825 -0.07813,1.17188 0.273432,-0.0781 0.527338,-0.16926 0.761718,-0.27344 0.24739,-0.10415 0.423172,-0.20832 0.527344,-0.3125 0.01301,-0.013 0.0065,-0.0195 -0.01953,-0.0195 -0.01303,0.013 -0.03256,0.0261 -0.05859,0.0391 -0.01303,2e-5 -0.03256,0.007 -0.05859,0.0195 -0.01303,2e-5 -0.04558,0.013 -0.09766,0.0391 -0.03907,0.0261 -0.08464,0.0521 -0.136719,0.0781 -0.05209,0.0261 -0.09766,0.0521 -0.136718,0.0781 -0.03907,0.013 -0.0586,0.007 -0.05859,-0.0195 -0.01303,2e-5 -6e-6,-0.0195 0.03906,-0.0586 l 0.07813,-0.0781 c 0.0651,-0.0651 0.143224,-0.10415 0.234375,-0.11718 0.104161,-0.026 0.195307,-0.0651 0.273438,-0.11719 l 0.585937,3.78906"
         style="font-variant:normal;font-stretch:normal;text-align:center;text-anchor:middle;font-family:El Abogado Loco;-inkscape-font-specification:El Abogado Loco"
         id="path2996" />
      <path
         d="m 72.00238,949.13904 c 0.169266,0.82033 0.292964,1.64064 0.371094,2.46094 0.07812,0.82033 0.117182,1.62762 0.117188,2.42187 0.143223,-0.14321 0.325514,-0.26691 0.546875,-0.37109 0.221347,-0.10415 0.449212,-0.18879 0.683593,-0.25391 0.247389,-0.0781 0.494785,-0.13019 0.742188,-0.15625 0.247388,-0.039 0.468742,-0.0586 0.664062,-0.0586 0.794262,10e-6 1.451813,0.1823 1.972657,0.54687 0.520822,0.3646 0.943999,0.83335 1.269531,1.40625 0.325509,0.55991 0.579415,1.18491 0.761719,1.875 0.182279,0.69012 0.332018,1.36069 0.449218,2.01172 0.273425,1.54949 0.592435,3.00782 0.957032,4.375 0.37759,1.36719 0.85285,2.7474 1.425781,4.14063 0.104151,0.27343 0.221339,0.55338 0.351562,0.83984 0.130193,0.27344 0.227849,0.5599 0.292969,0.85937 l 0,0.3125 c -1.6e-5,0.22136 -0.04559,0.4362 -0.136719,0.64454 -0.07814,0.22135 -0.201838,0.33203 -0.371093,0.33203 l -0.03906,0 c -0.143244,-0.0521 -0.279963,-0.16276 -0.410156,-0.33203 -0.585952,-1.23698 -1.132826,-2.48047 -1.640625,-3.73047 -0.507825,-1.26302 -0.937512,-2.55859 -1.289063,-3.88672 -0.117199,-0.42968 -0.227876,-0.86588 -0.332031,-1.3086 -0.104178,-0.4427 -0.208345,-0.8854 -0.3125,-1.32812 -0.104178,-0.37759 -0.195324,-0.76171 -0.273437,-1.15234 -0.07814,-0.39062 -0.195324,-0.76822 -0.351563,-1.13282 -1.1e-5,0.013 -0.01954,-0.013 -0.05859,-0.0781 -0.03907,-0.0651 -0.09116,-0.14322 -0.15625,-0.23438 -0.06511,-0.10415 -0.136729,-0.21483 -0.214843,-0.33203 -0.07814,-0.11717 -0.156261,-0.21483 -0.234375,-0.29297 -0.182302,-0.14321 -0.384125,-0.24087 -0.605469,-0.29297 -0.221364,-0.0651 -0.455738,-0.0976 -0.703125,-0.0976 -0.625008,10e-6 -1.165372,0.13673 -1.621094,0.41015 -0.455736,0.26043 -0.800787,0.63804 -1.035156,1.13282 l -0.117188,0.2539 c -0.02605,0.0521 -0.03907,0.0847 -0.03906,0.0977 -0.143235,0.15626 -0.253912,0.35808 -0.332031,0.60547 -0.07813,0.2474 -0.156256,0.54688 -0.234375,0.89844 -0.07813,0.33855 -0.182297,0.72917 -0.3125,1.17187 -0.117193,0.4297 -0.299484,0.90496 -0.546875,1.42578 -0.351567,1.31511 -0.768233,2.59766 -1.25,3.84766 -0.468753,1.23698 -0.970055,2.48698 -1.503907,3.75 -0.02604,0.0391 -0.06511,0.11719 -0.117187,0.23437 -0.05209,0.11719 -0.09766,0.1888 -0.136719,0.21485 -0.182293,0.19531 -0.364584,0.20182 -0.546875,0.0195 -0.182292,-0.16927 -0.273438,-0.44922 -0.273437,-0.83985 l 0,-0.15625 0.05859,-0.39062 c 0.247395,-0.70312 0.494791,-1.41276 0.742188,-2.12891 0.260415,-0.71614 0.5013,-1.43879 0.722656,-2.16797 0.09114,-0.33853 0.1888,-0.71614 0.292969,-1.13281 0.117185,-0.42968 0.240883,-0.93749 0.371094,-1.52344 0.130205,-0.58593 0.266924,-1.26301 0.410156,-2.03125 0.143226,-0.78124 0.292965,-1.68618 0.449219,-2.71484 l 0,-0.0195 c 0.02604,-0.37759 0.04557,-0.76171 0.05859,-1.15234 0.02604,-0.40364 0.03255,-0.80077 0.01953,-1.19141 -0.01302,-0.41665 -0.03256,-0.85936 -0.05859,-1.32813 -0.02605,-0.46873 -0.09115,-0.91144 -0.195313,-1.32812 l 0,-0.0586 c -0.01302,-0.0521 -0.02604,-0.11066 -0.03906,-0.17579 -0.01302,-0.0781 -0.03907,-0.18227 -0.07813,-0.3125 -0.03907,-0.13019 -0.09115,-0.29946 -0.15625,-0.50781 -0.05209,-0.20831 -0.123701,-0.48175 -0.214844,-0.82031 l 2.207031,-1.26953"
         style="font-variant:normal;font-stretch:normal;text-align:center;text-anchor:middle;font-family:El Abogado Loco;-inkscape-font-specification:El Abogado Loco"
         id="path2998" />
      <path
         d="m 95.12738,970.85779 c -0.221366,-0.53386 -0.462251,-1.10026 -0.722656,-1.69922 -0.247407,-0.59896 -0.501313,-1.25651 -0.761719,-1.97266 -0.195323,0.48178 -0.455739,0.8724 -0.78125,1.17188 -0.312509,0.29948 -0.670582,0.53385 -1.074218,0.70312 -0.390634,0.16927 -0.8073,0.28646 -1.25,0.35157 -0.442716,0.0521 -0.878913,0.0781 -1.308594,0.0781 -0.559902,0 -1.080734,-0.0195 -1.5625,-0.0586 -1.093754,-0.0911 -1.972659,-0.48177 -2.636719,-1.17188 -0.664064,-0.6901 -0.996095,-1.71875 -0.996094,-3.08594 -10e-7,-0.98957 0.05859,-1.90103 0.175782,-2.73437 0.117186,-0.84635 0.208331,-1.66015 0.273437,-2.44141 0.07812,-0.79426 0.09114,-1.58853 0.03906,-2.38281 -0.05209,-0.79426 -0.247398,-1.65363 -0.585938,-2.57812 -0.07813,-0.1953 -0.117188,-0.40364 -0.117187,-0.625 -10e-7,-0.26041 0.04557,-0.49478 0.136718,-0.70313 0.104166,-0.22134 0.227864,-0.33201 0.371094,-0.33203 0.18229,2e-5 0.358071,0.15627 0.527344,0.46875 0.403643,0.93751 0.690101,1.88803 0.859375,2.85156 0.169268,0.96356 0.253903,1.94663 0.253906,2.94922 -3e-6,0.85938 -0.06511,1.70574 -0.195312,2.53906 -0.117191,0.82032 -0.175784,1.65365 -0.175782,2.5 -2e-6,0.16928 -0.0065,0.37761 -0.01953,0.625 -2e-6,0.23438 0.05208,0.42318 0.15625,0.56641 0.182289,0.28646 0.475257,0.48828 0.878906,0.60547 0.416663,0.10417 0.865881,0.15625 1.347657,0.15625 0.507807,0 0.989577,-0.0326 1.445312,-0.0977 0.468743,-0.0651 0.885409,-0.15625 1.25,-0.27344 0.364575,-0.1302 0.664054,-0.27343 0.898438,-0.42968 0.247387,-0.16927 0.403636,-0.35156 0.46875,-0.54688 0.104157,-0.33854 0.201813,-0.70312 0.292968,-1.09375 0.09114,-0.39062 0.162751,-0.79426 0.214844,-1.21094 -9e-6,-0.0521 -0.0065,-0.0911 -0.01953,-0.11718 -0.117197,-0.83333 -0.195322,-1.68619 -0.234375,-2.5586 -9e-6,-0.5078 0.01952,-1.0091 0.05859,-1.5039 0.05207,-0.5078 0.110667,-1.00911 0.175781,-1.50391 0.02603,-0.0911 0.06509,-0.24738 0.117187,-0.46875 0.05207,-0.23436 0.117178,-0.49478 0.195313,-0.78125 0.07811,-0.29946 0.16275,-0.60545 0.253906,-0.91797 0.104157,-0.3255 0.208323,-0.61847 0.3125,-0.8789 0.117177,-0.26041 0.234364,-0.47525 0.351563,-0.64454 0.117176,-0.16925 0.240874,-0.25389 0.371093,-0.2539 0.143218,10e-6 0.260406,0.11069 0.351563,0.33203 0.104155,0.20835 0.156238,0.42319 0.15625,0.64453 -1.2e-5,0.14324 -0.01954,0.27345 -0.05859,0.39063 -0.03907,0.10418 -0.05861,0.20183 -0.05859,0.29296 -0.14324,0.33856 -0.260428,0.69663 -0.351562,1.07422 -0.09116,0.3646 -0.169282,0.72918 -0.234375,1.09375 -0.06512,0.40366 -0.110688,0.7422 -0.136719,1.01563 -0.01303,0.26043 -0.01954,0.50131 -0.01953,0.72265 0.09113,1.62762 0.397124,3.22918 0.917969,4.80469 0.520821,1.57553 1.282539,3.15105 2.285156,4.72656 l -1.835938,2.40235"
         style="font-variant:normal;font-stretch:normal;text-align:center;text-anchor:middle;font-family:El Abogado Loco;-inkscape-font-specification:El Abogado Loco"
         id="path3000" />
      <path
         d="m 103.13519,957.28357 c 0.0391,-0.013 0.0977,-0.0586 0.17578,-0.13672 -0.026,0.013 -0.0456,0.0261 -0.0586,0.0391 -1e-5,2e-5 -0.013,0.007 -0.0391,0.0195 -0.10417,0.0521 -0.13022,0.0781 -0.0781,0.0781 m -4.667966,11.17187 c 0.859374,-1.82291 1.484373,-3.59374 1.874996,-5.3125 0.40365,-1.71874 0.63802,-3.46353 0.70313,-5.23437 0.013,-0.0911 0.0195,-0.18228 0.0195,-0.27344 0.013,-0.0911 0.0326,-0.18879 0.0586,-0.29297 -0.026,-0.27342 -0.0586,-0.54686 -0.0977,-0.82031 -0.0391,-0.28644 -0.0911,-0.5729 -0.15625,-0.85937 -0.026,-0.0911 -0.0716,-0.23437 -0.13672,-0.42969 -0.0521,-0.1953 -0.0781,-0.36457 -0.0781,-0.50781 -0.026,-0.22134 -0.007,-0.42968 0.0586,-0.625 0.0651,-0.20832 0.14973,-0.40363 0.2539,-0.58594 l 0.0586,-0.0586 c 0.0391,-0.039 0.0846,-0.0586 0.13672,-0.0586 l 0.0391,0 c 0.11718,2e-5 0.21484,0.0586 0.29297,0.17578 0.0911,0.10418 0.16926,0.2409 0.23437,0.41016 0.0651,0.15626 0.1237,0.33855 0.17578,0.54687 0.0521,0.19533 0.0977,0.37762 0.13672,0.54688 0,10e-6 0.013,-0.013 0.0391,-0.0391 l 0,0.0195 c 0.013,-0.026 0.0391,-0.0586 0.0781,-0.0977 l 0.0586,-0.0586 c 0.26042,-0.2604 0.61198,-0.45572 1.05469,-0.58594 0.4427,-0.13019 0.91145,-0.21483 1.40625,-0.25391 0.49479,-0.0521 0.97656,-0.0781 1.44531,-0.0781 0.48177,10e-6 0.89192,10e-6 1.23047,0 0.20833,10e-6 0.41666,0.007 0.625,0.0195 0.20833,0.013 0.39713,0.0521 0.56641,0.11719 0.16926,0.0651 0.30598,0.17579 0.41016,0.33203 0.11717,0.15626 0.17577,0.37111 0.17578,0.64453 -1e-5,0.23439 -0.0586,0.44923 -0.17578,0.64453 -0.1172,0.18231 -0.29298,0.27345 -0.52735,0.27344 l -0.33203,0 c -0.46876,0.013 -0.94402,0.0651 -1.42578,0.15625 -0.48178,0.0912 -0.95053,0.19532 -1.40625,0.3125 -0.026,10e-6 -0.0521,0.007 -0.0781,0.0195 -0.026,0.013 -0.0521,0.0195 -0.0781,0.0195 -0.22136,0.0781 -0.40365,0.14324 -0.54688,0.19531 -0.14323,0.0391 -0.27344,0.0847 -0.39062,0.13672 -0.11719,0.0391 -0.2474,0.0912 -0.39063,0.15625 -0.13021,0.0521 -0.29948,0.13022 -0.50781,0.23438 l -0.0586,0.0586 c -10e-6,0.33855 -0.0195,0.65756 -0.0586,0.95703 -0.0391,0.28647 -0.0781,0.57293 -0.11718,0.85938 -0.0391,0.28647 -0.0781,0.57292 -0.11719,0.85937 -0.0391,0.27345 -0.0586,0.57293 -0.0586,0.89844 -0.013,0.61199 -0.0781,1.2435 -0.19532,1.89453 -0.10417,0.63803 -0.24089,1.28256 -0.41015,1.93359 -0.15626,0.63803 -0.33204,1.27605 -0.52735,1.91407 -0.18229,0.63802 -0.36458,1.25 -0.54687,1.83593 -0.026,0.0521 -0.0391,0.0977 -0.0391,0.13672 l -0.11719,0.35157 c -0.0651,0.18229 -0.13021,0.35807 -0.19531,0.52734 -0.0651,0.15625 -0.13022,0.31901 -0.19532,0.48828 0,0.0521 -0.0195,0.11719 -0.0586,0.19531 -0.026,0.0781 -0.0651,0.15625 -0.11719,0.23438 -0.0391,0.0911 -0.0781,0.17578 -0.11719,0.2539 -0.026,0.0912 -0.0391,0.16276 -0.0391,0.21485 l -1.835936,-2.40235"
         style="font-variant:normal;font-stretch:normal;text-align:center;text-anchor:middle;font-family:El Abogado Loco;-inkscape-font-specification:El Abogado Loco"
         id="path3002" />
      <path
         d="m 39.97113,1020.8578 c -0.598977,-1.0287 -1.178404,-2.0768 -1.738281,-3.1445 -0.559913,-1.0808 -1.067725,-2.181 -1.523437,-3.3008 -0.455746,-1.1328 -0.84637,-2.2852 -1.171875,-3.4571 -0.325536,-1.1718 -0.553401,-2.3828 -0.683594,-3.6328 -0.02606,-0.1822 -0.0521,-0.3645 -0.07813,-0.5468 -0.01304,-0.1953 -0.01955,-0.3841 -0.01953,-0.5664 l 0,-0.059 c -0.572931,1.7838 -1.080743,3.5937 -1.523438,5.4296 -0.4297,1.836 -0.90496,3.6589 -1.425781,5.4688 -0.208345,0.5339 -0.455741,0.8008 -0.742188,0.8008 -0.299489,0 -0.546885,-0.2669 -0.742187,-0.8008 -0.325531,-1.0547 -0.638031,-2.1029 -0.9375,-3.1445 -0.299488,-1.0417 -0.585946,-2.0899 -0.859375,-3.1446 -0.247404,-0.9765 -0.4948,-1.9791 -0.742188,-3.0078 -0.234382,-1.0416 -0.52084,-2.0638 -0.859375,-3.0664 l 0,0.059 c -6e-6,-0.013 -0.0065,-0.019 -0.01953,-0.019 -7e-6,0 -7e-6,-0.01 0,-0.02 -0.01303,1.1068 -0.117194,2.2006 -0.3125,3.2813 -0.182298,1.0807 -0.436204,2.1484 -0.761719,3.2031 -0.325526,1.0417 -0.70964,2.0768 -1.152343,3.1055 -0.429692,1.0156 -0.891931,2.0117 -1.386719,2.9883 -0.03907,0.078 -0.07813,0.1562 -0.117188,0.2343 -0.03906,0.065 -0.07162,0.1303 -0.09766,0.1954 -0.09115,0.1692 -0.221357,0.4231 -0.390625,0.7617 -0.156252,0.3255 -0.332033,0.651 -0.527344,0.9765 -0.182293,0.3256 -0.371095,0.5925 -0.566406,0.8008 -0.182293,0.2214 -0.338543,0.2995 -0.46875,0.2344 -0.130209,-0.1302 -0.234376,-0.293 -0.3125,-0.4883 -0.07813,-0.1953 -0.09115,-0.4427 -0.03906,-0.7422 0.03906,-0.078 0.0651,-0.1627 0.07813,-0.2539 0.01302,-0.091 0.04557,-0.1693 0.09766,-0.2344 0.572915,-1.0807 1.13281,-2.1809 1.679687,-3.3007 0.559893,-1.1198 1.054684,-2.2591 1.484375,-3.418 0.429683,-1.1589 0.774735,-2.3372 1.035157,-3.5352 0.273432,-1.1979 0.41015,-2.4218 0.410156,-3.6718 -6e-6,-0.3386 -0.01303,-0.6836 -0.03906,-1.0352 -0.01303,-0.3515 -0.04558,-0.6966 -0.09766,-1.0351 -5e-6,-0.052 -0.01303,-0.1042 -0.03906,-0.1563 -0.01303,-0.052 -0.01954,-0.1041 -0.01953,-0.1562 l 0,-0.059 c -0.03907,-0.078 -0.07813,-0.1953 -0.117187,-0.3516 -0.02605,-0.1693 -0.06511,-0.3516 -0.117188,-0.5469 -0.03907,-0.2083 -0.09766,-0.4166 -0.175781,-0.625 -0.06511,-0.2213 -0.156255,-0.4296 -0.273437,-0.625 l 0.01953,-0.039 c -5e-6,-0.078 -0.01303,-0.1628 -0.03906,-0.25395 -0.01302,-0.0911 -0.01302,-0.19529 0,-0.3125 -4e-6,-0.18227 0.01953,-0.36456 0.05859,-0.54687 0.05208,-0.1953 0.117183,-0.35155 0.195313,-0.46875 0.09114,-0.11717 0.201817,-0.17576 0.332031,-0.17579 0.143224,-0.013 0.312494,0.0651 0.507812,0.23438 0.02604,0.0521 0.04557,0.0847 0.05859,0.0977 -6e-6,2e-5 0.01301,-0.013 0.03906,-0.0391 0.01301,0.0261 0.01952,0.0586 0.01953,0.0977 -6e-6,0.0261 0.0065,0.0521 0.01953,0.0781 0.716139,1.08071 1.315097,2.20051 1.796875,3.35941 0.481763,1.1588 0.898429,2.3502 1.25,3.5742 0.364574,1.224 0.703116,2.4609 1.015625,3.7109 0.31249,1.25 0.657542,2.5 1.035156,3.75 0.351552,-1.3802 0.683583,-2.7669 0.996094,-4.1601 0.312488,-1.3932 0.677071,-2.7735 1.09375,-4.1407 l 0.117188,-0.4101 c 0.312486,-0.9505 0.657538,-1.9075 1.035156,-2.8711 0.377589,-0.9635 0.878891,-1.86848 1.503906,-2.71485 0.02603,-0.0521 0.08462,-0.13019 0.175781,-0.23437 0.09113,-0.10415 0.136703,-0.18228 0.136719,-0.23438 l 0.01953,-0.0391 0,0.0195 c 0.117172,-0.18227 0.260401,-0.31899 0.429688,-0.41016 l 0.175781,-0.0586 c 0.07811,-0.039 0.162744,-0.0456 0.253906,-0.0195 0.05207,2e-5 0.08462,0.007 0.09766,0.0195 l 0.03906,0 c 0.05207,0.0521 0.117171,0.12372 0.195313,0.21484 0.09113,0.0781 0.175764,0.18232 0.253906,0.3125 0.07811,0.13023 0.143211,0.28648 0.195312,0.46875 0.05207,0.18232 0.07811,0.40367 0.07813,0.66407 l 0,0.11718 c -0.02606,0.0521 -0.0521,0.14976 -0.07813,0.29294 -0.02606,0.1433 -0.0521,0.267 -0.07813,0.3711 -1.7e-5,0 0.013,0.013 0.03906,0.039 -0.02606,0.052 -0.06512,0.1042 -0.117188,0.1562 l 0,0.02 c -0.221371,0.5469 -0.403663,1.1654 -0.546875,1.8554 -0.143246,0.6771 -0.21486,1.4389 -0.214843,2.2852 -1.7e-5,1.1458 0.130191,2.2787 0.390625,3.3984 0.260399,1.1198 0.59894,2.2201 1.015625,3.3008 0.429669,1.0677 0.917949,2.1159 1.464843,3.1445 0.546855,1.0157 1.106751,1.9987 1.679688,2.9493 0.03904,0.065 0.07159,0.1237 0.09766,0.1757 0.03904,0.052 0.0781,0.1042 0.117188,0.1563 l -1.582032,2.8711"
         style="font-variant:normal;font-stretch:normal;text-align:center;text-anchor:middle;font-family:El Abogado Loco;-inkscape-font-specification:El Abogado Loco"
         id="path3004" />
      <path
         d="m 45.43988,1008.5922 c -0.01302,0.078 -0.01953,0.1627 -0.01953,0.2539 -3e-6,0.078 -0.0065,0.1693 -0.01953,0.2734 0.195309,0.026 0.384111,0.039 0.566406,0.039 0.195309,0 0.384111,0 0.566406,0 0.820308,0 1.621088,-0.052 2.402344,-0.1563 0.794264,-0.1041 1.634106,-0.2018 2.519531,-0.2929 -9e-6,-0.2735 -0.01954,-0.5534 -0.05859,-0.8399 -0.02605,-0.2864 -0.136728,-0.5338 -0.332032,-0.7422 -0.299487,-0.1432 -0.703133,-0.2539 -1.210937,-0.332 -0.50782,-0.091 -1.035163,-0.1367 -1.582031,-0.1367 -0.494797,0 -0.963547,0.046 -1.40625,0.1367 -0.442713,0.078 -0.794275,0.2214 -1.054688,0.4297 -0.10417,0.1823 -0.175784,0.3646 -0.214844,0.5469 -0.02605,0.1823 -0.07162,0.4036 -0.136718,0.664 l 0,0.098 c -4e-6,0.013 -0.0065,0.026 -0.01953,0.039 -3e-6,0 -3e-6,0.01 0,0.02 m 7.34375,2.539 c -0.911467,0.1172 -1.816415,0.2084 -2.714843,0.2735 -0.898445,0.065 -1.796881,0.098 -2.695313,0.098 -0.377609,0 -0.761723,-0.01 -1.152344,-0.019 -0.377607,-0.013 -0.755211,-0.033 -1.132812,-0.059 -0.06511,0.5339 -0.123701,1.0612 -0.175781,1.582 -0.03907,0.5078 -0.0586,1.0222 -0.05859,1.543 -3e-6,0.1953 -3e-6,0.3906 0,0.5859 -3e-6,0.1953 0.01302,0.3972 0.03906,0.6055 0.156248,0.2344 0.35807,0.4167 0.605469,0.5469 0.260413,0.1302 0.533851,0.2344 0.820313,0.3125 0.299475,0.065 0.598953,0.1107 0.898437,0.1367 0.299474,0.026 0.572911,0.052 0.820313,0.078 0.156244,0.013 0.351556,0.026 0.585937,0.039 0.234369,0.013 0.481764,0.019 0.742188,0.019 0.299471,0 0.611971,-0.013 0.9375,-0.039 0.325512,-0.026 0.624991,-0.072 0.898437,-0.1368 0.286449,-0.065 0.540355,-0.1562 0.761719,-0.2734 0.234365,-0.1302 0.403636,-0.293 0.507812,-0.4883 0.130198,-0.2344 0.214834,-0.5013 0.253907,-0.8008 0.03905,-0.3125 0.0716,-0.6054 0.09766,-0.8789 0.03905,-0.2734 0.09114,-0.5013 0.15625,-0.6836 0.07811,-0.1953 0.208322,-0.2929 0.390625,-0.2929 0.143218,0 0.273426,0.1041 0.390625,0.3125 0.117176,0.1953 0.18879,0.4427 0.214844,0.7422 -0.02605,0.3385 -0.05861,0.6835 -0.09766,1.0351 -0.02605,0.3516 -0.07814,0.6966 -0.15625,1.0352 -0.117198,0.5859 -0.351573,1.0547 -0.703125,1.4062 -0.338552,0.3516 -0.742197,0.6185 -1.210937,0.8008 -0.455738,0.1823 -0.950529,0.306 -1.484375,0.3711 -0.533862,0.052 -1.061205,0.078 -1.582031,0.078 -0.390631,0 -0.852871,-0.013 -1.386719,-0.039 -0.533859,-0.026 -1.061202,-0.1107 -1.582031,-0.254 -0.507816,-0.1562 -0.970055,-0.3841 -1.386719,-0.6835 -0.403648,-0.3125 -0.677085,-0.7487 -0.820313,-1.3086 -0.104167,-0.3907 -0.182292,-0.7878 -0.234375,-1.1914 -0.03906,-0.4167 -0.05859,-0.8334 -0.05859,-1.25 -10e-7,-0.8464 0.05859,-1.6928 0.175781,-2.5391 0.117186,-0.8594 0.221353,-1.6797 0.3125,-2.4609 0.03906,-0.3516 0.0651,-0.7097 0.07813,-1.0743 0.02604,-0.3776 0.05859,-0.7487 0.09766,-1.1132 0.05208,-0.3776 0.130207,-0.7422 0.234375,-1.0938 0.104165,-0.3515 0.266925,-0.6771 0.488281,-0.9766 0.208331,-0.2864 0.468748,-0.5208 0.78125,-0.7031 0.312497,-0.1823 0.651038,-0.3255 1.015625,-0.4297 0.364579,-0.1041 0.742183,-0.1757 1.132813,-0.2148 0.40364,-0.052 0.794265,-0.078 1.171875,-0.078 0.833326,0 1.516919,0.078 2.050781,0.2343 0.533845,0.1563 0.963532,0.3646 1.289063,0.625 0.338531,0.2605 0.592437,0.5665 0.761718,0.918 0.169261,0.3516 0.292958,0.7292 0.371094,1.1328 0.07811,0.3907 0.136708,0.7943 0.175781,1.211 0.03905,0.4166 0.104156,0.8268 0.195313,1.2304 0.02603,0.4297 -0.0065,0.8334 -0.09766,1.211 -0.07814,0.3776 -0.319022,0.6836 -0.722657,0.9179"
         style="font-variant:normal;font-stretch:normal;text-align:center;text-anchor:middle;font-family:El Abogado Loco;-inkscape-font-specification:El Abogado Loco"
         id="path3006" />
      <path
         d="m 61.68988,1007.1469 c -0.07813,1.3411 -0.22136,2.6627 -0.429687,3.9648 -0.20834,1.2891 -0.462246,2.5781 -0.761719,3.8672 0.0651,-0.065 0.156244,-0.1172 0.273438,-0.1563 0.638014,0.1693 1.276034,0.3386 1.914062,0.5078 0.638012,0.1563 1.276033,0.306 1.914063,0.4493 0.572906,0.1302 1.139312,0.2343 1.699218,0.3125 0.572905,0.078 1.145821,0.1692 1.71875,0.2734 l 0.351563,0.059 c 0.156236,-0.026 0.318996,-0.039 0.488281,-0.039 0.169257,-0.013 0.318996,-0.039 0.449219,-0.078 0.143214,-0.052 0.260402,-0.1302 0.351562,-0.2344 0.09113,-0.1172 0.136704,-0.2864 0.136719,-0.5078 0.02603,-0.3776 -0.01304,-0.8203 -0.117187,-1.3281 -0.09116,-0.5078 -0.292984,-1.1068 -0.605469,-1.7969 l 0,-0.019 c -0.260431,-0.5339 -0.55991,-1.0482 -0.898438,-1.543 -0.325533,-0.5078 -0.735689,-0.944 -1.230468,-1.3086 -0.195325,-0.1432 -0.410168,-0.2734 -0.644532,-0.3906 -0.234386,-0.1172 -0.468761,-0.2279 -0.703125,-0.332 -0.234385,-0.1042 -0.46876,-0.2149 -0.703125,-0.3321 -0.221364,-0.1302 -0.423186,-0.2799 -0.605468,-0.4492 -0.01303,-0.013 -0.02605,-0.019 -0.03906,-0.019 -0.01303,-0.013 -0.02605,-0.033 -0.03906,-0.059 -0.07814,0 -0.16277,-0.059 -0.253907,-0.1758 -0.07813,-0.1302 -0.156259,-0.2799 -0.234375,-0.4492 -0.06511,-0.1823 -0.117196,-0.3711 -0.15625,-0.5664 -0.03907,-0.1953 -0.0586,-0.3711 -0.05859,-0.5274 -9e-6,-0.4947 0.13671,-0.9505 0.410156,-1.3671 0.286449,-0.4297 0.644521,-0.7943 1.074219,-1.0938 0.208323,-0.1432 0.358062,-0.2734 0.449218,-0.3906 0.104156,-0.1172 0.247385,-0.306 0.429688,-0.5664 -0.247407,-0.1432 -0.520844,-0.2604 -0.820313,-0.3516 -0.286468,-0.1041 -0.579436,-0.1823 -0.878906,-0.2344 -0.286467,-0.052 -0.572925,-0.085 -0.859375,-0.098 -0.273446,-0.026 -0.520841,-0.039 -0.742187,-0.039 -0.01303,-0.013 -0.06511,-0.013 -0.15625,0 -0.09115,0 -0.19532,0.01 -0.3125,0.02 -0.104174,0.013 -0.214851,0.033 -0.332032,0.059 -0.104173,0.013 -0.175788,0.026 -0.214843,0.039 0.02604,0.1433 0.03905,0.293 0.03906,0.4492 0.01301,0.1433 0.02604,0.2865 0.03906,0.4297 l 0,0.02 c 0.01301,0.3126 0.02603,0.5665 0.03906,0.7618 0.02604,0.1953 0.03906,0.3711 0.03906,0.5273 0.01301,0.1563 0.01952,0.3125 0.01953,0.4688 0.01301,0.1432 0.01952,0.319 0.01953,0.5273 -7e-6,0.586 -0.01954,1.1589 -0.05859,1.7188 m -6.269531,15.4492 c 0.03906,-0.1302 0.08463,-0.2605 0.136719,-0.3907 0.05208,-0.1171 0.110676,-0.2408 0.175781,-0.371 l 0.878906,-2.2266 c 0.33854,-0.8464 0.638019,-1.6992 0.898438,-2.5586 0.273434,-0.8724 0.559892,-1.7383 0.859375,-2.5977 l 0,-0.019 c 0.273434,-1.0807 0.520829,-2.1484 0.742187,-3.2031 0.234371,-1.0547 0.423173,-2.1354 0.566407,-3.2422 0.0651,-0.5078 0.104161,-1.0156 0.117187,-1.5234 0.02604,-0.5078 0.03906,-1.0222 0.03906,-1.543 -5e-6,-0.4557 -0.01954,-0.8984 -0.05859,-1.3281 -0.03907,-0.4297 -0.0586,-0.8854 -0.05859,-1.3672 -5e-6,-0.3646 0.03255,-0.7227 0.09766,-1.0742 0.0651,-0.3646 0.182287,-0.6836 0.351563,-0.9571 0.182286,-0.28641 0.429682,-0.51428 0.742187,-0.68357 0.312494,-0.16925 0.709629,-0.25388 1.191407,-0.2539 0.143221,-0.013 0.28645,-0.013 0.429687,0 0.143221,2e-5 0.28645,0.007 0.429688,0.0195 0.624991,0.0651 1.217438,0.16929 1.777343,0.3125 0.559886,0.13022 1.054677,0.32554 1.484375,0.58594 0.429676,0.2604 0.768217,0.5925 1.015625,0.9961 0.260404,0.3906 0.390613,0.8789 0.390625,1.4648 -1.2e-5,0.4558 -0.09116,0.918 -0.273437,1.3868 -0.1172,0.3385 -0.240898,0.6119 -0.371094,0.8203 -0.13022,0.2083 -0.273449,0.3906 -0.429687,0.5468 -0.143241,0.1433 -0.299491,0.28 -0.46875,0.4102 -0.156261,0.1172 -0.319022,0.2604 -0.488282,0.4297 0.221344,0.1172 0.436187,0.2344 0.644532,0.3515 0.221342,0.1172 0.481759,0.2475 0.78125,0.3907 0.664049,0.3515 1.256497,0.8724 1.777343,1.5625 0.53384,0.6771 0.976548,1.4192 1.328125,2.2265 0.364568,0.8073 0.638005,1.6342 0.820313,2.4805 0.182275,0.8464 0.25389,1.6081 0.214844,2.2852 -1.7e-5,0.078 -0.0065,0.2864 -0.01953,0.625 -1.6e-5,0.3255 -0.06512,0.677 -0.195312,1.0546 -0.117204,0.3646 -0.332047,0.6967 -0.644531,0.9961 -0.299495,0.2865 -0.755223,0.4297 -1.367188,0.4297 -0.195326,0 -0.390639,-0.019 -0.585937,-0.059 l -0.05859,0 c -0.182305,-0.039 -0.364597,-0.078 -0.546875,-0.1172 -0.169284,-0.039 -0.345065,-0.072 -0.527344,-0.098 -1.106782,-0.1563 -2.207041,-0.3776 -3.300781,-0.6641 -1.080737,-0.2864 -2.161465,-0.5989 -3.242188,-0.9375 -0.03907,0 -0.08464,-0.013 -0.136718,-0.039 l 0,-0.039 c -0.156256,-0.1432 -0.266933,-0.3385 -0.332032,-0.5859 -0.364588,1.4323 -0.781254,2.8385 -1.25,4.2187 -0.468753,1.3802 -0.963544,2.7604 -1.484375,4.1406 l -0.01953,-0.019 c -0.02604,0.1042 -0.0586,0.1953 -0.09766,0.2734 -0.03907,0.091 -0.07162,0.1888 -0.09766,0.293 l -1.835938,-2.4023"
         style="font-variant:normal;font-stretch:normal;text-align:center;text-anchor:middle;font-family:El Abogado Loco;-inkscape-font-specification:El Abogado Loco"
         id="path3008" />
      <path
         d="m 82.842224,1007.3226 c -1.1e-5,0.026 -1.1e-5,0.052 0,0.078 0.01301,0.013 0.01952,0.033 0.01953,0.059 -0.01303,-0.065 -0.02605,-0.1107 -0.03906,-0.1368 -1.1e-5,-0.039 0.0065,-0.039 0.01953,0 m -6.445312,-4.0234 c 0.0651,0.2214 0.123693,0.4297 0.175781,0.625 0.0651,0.1953 0.123693,0.3971 0.175781,0.6055 0.429682,-0.3646 0.950515,-0.6055 1.5625,-0.7227 0.611972,-0.1302 1.21093,-0.1953 1.796875,-0.1953 0.312491,0 0.644522,0.013 0.996094,0.039 0.364573,0.013 0.716136,0.065 1.054687,0.1562 0.338531,0.091 0.651031,0.2279 0.9375,0.4102 0.299468,0.1692 0.546863,0.4101 0.742188,0.7226 0.234362,0.3907 0.403633,0.8399 0.507812,1.3477 0.117175,0.5078 0.1953,1.0351 0.234375,1.582 0.05207,0.5469 0.08462,1.0938 0.09766,1.6406 0.01301,0.5469 0.04556,1.0417 0.09766,1.4844 0.169257,1.3802 0.494778,2.7214 0.976562,4.0234 0.494777,1.2891 1.087225,2.5391 1.777344,3.75 0.130192,0.2214 0.195297,0.4818 0.195313,0.7813 -1.6e-5,0.2604 -0.04559,0.4883 -0.136719,0.6836 -0.09116,0.1953 -0.21486,0.293 -0.371094,0.293 -0.143244,0 -0.299494,-0.1107 -0.46875,-0.3321 -0.963556,-1.5234 -1.738295,-3.0664 -2.324219,-4.6289 -0.572929,-1.5625 -0.983084,-3.2357 -1.230468,-5.0195 -0.03907,-0.2734 -0.06512,-0.5273 -0.07813,-0.7617 -1.2e-5,-0.2474 -0.01303,-0.4883 -0.03906,-0.7227 -0.01303,-0.2474 -0.03907,-0.5013 -0.07813,-0.7617 -0.03907,-0.2734 -0.09767,-0.5664 -0.175781,-0.8789 -1.1e-5,-0.013 -1.1e-5,-0.039 0,-0.078 0.01301,-0.052 -0.0065,-0.1042 -0.05859,-0.1563 -0.03907,-0.065 -0.123709,-0.1302 -0.253906,-0.1953 -0.117198,-0.078 -0.312511,-0.1432 -0.585938,-0.1953 -0.182301,-0.026 -0.377614,-0.046 -0.585937,-0.059 -0.195322,-0.026 -0.384124,-0.033 -0.566406,-0.019 l 0,0.019 c -1e-5,0 -0.09767,0.013 -0.292969,0.039 -0.195321,0.013 -0.429696,0.045 -0.703125,0.098 -0.273445,0.039 -0.566414,0.098 -0.878906,0.1758 -0.299487,0.065 -0.553393,0.1497 -0.761719,0.2539 -0.143236,0.065 -0.319017,0.2539 -0.527344,0.5664 -0.195318,0.2995 -0.319016,0.6836 -0.371094,1.1524 -0.208338,2.0182 -0.631515,3.9388 -1.269531,5.7617 -0.625004,1.8229 -1.451826,3.6263 -2.480469,5.4101 -0.182293,0.2214 -0.338543,0.3321 -0.46875,0.3321 -0.104168,0 -0.195313,-0.059 -0.273437,-0.1758 -0.06511,-0.1042 -0.117189,-0.2344 -0.15625,-0.3906 -0.03906,-0.1563 -0.06511,-0.3191 -0.07813,-0.4883 -10e-7,-0.1823 0.01953,-0.3386 0.05859,-0.4688 0.33854,-0.7031 0.670571,-1.4323 0.996093,-2.1875 0.33854,-0.7682 0.638019,-1.5429 0.898438,-2.3242 0.260413,-0.7943 0.468747,-1.595 0.625,-2.4023 0.169267,-0.8073 0.253902,-1.6146 0.253906,-2.4219 -4e-6,-0.9245 -0.10417,-1.7448 -0.3125,-2.461 -0.195316,-0.7161 -0.42318,-1.3997 -0.683594,-2.0507 l 2.050782,-1.8555"
         style="font-variant:normal;font-stretch:normal;text-align:center;text-anchor:middle;font-family:El Abogado Loco;-inkscape-font-specification:El Abogado Loco"
         id="path3010" />
      <path
         d="m 91.455505,1008.5922 c -0.01302,0.078 -0.01953,0.1627 -0.01953,0.2539 -3e-6,0.078 -0.0065,0.1693 -0.01953,0.2734 0.195309,0.026 0.384111,0.039 0.566406,0.039 0.195309,0 0.384111,0 0.566406,0 0.820308,0 1.621088,-0.052 2.402344,-0.1563 0.794264,-0.1041 1.634106,-0.2018 2.519531,-0.2929 -9e-6,-0.2735 -0.01954,-0.5534 -0.05859,-0.8399 -0.02605,-0.2864 -0.136728,-0.5338 -0.332032,-0.7422 -0.299487,-0.1432 -0.703133,-0.2539 -1.210937,-0.332 -0.50782,-0.091 -1.035163,-0.1367 -1.582031,-0.1367 -0.494797,0 -0.963547,0.046 -1.40625,0.1367 -0.442713,0.078 -0.794275,0.2214 -1.054688,0.4297 -0.10417,0.1823 -0.175784,0.3646 -0.214844,0.5469 -0.02604,0.1823 -0.07162,0.4036 -0.136718,0.664 l 0,0.098 c -4e-6,0.013 -0.0065,0.026 -0.01953,0.039 -3e-6,0 -3e-6,0.01 0,0.02 m 7.34375,2.539 c -0.911467,0.1172 -1.816415,0.2084 -2.714843,0.2735 -0.898445,0.065 -1.796881,0.098 -2.695313,0.098 -0.377609,0 -0.761723,-0.01 -1.152344,-0.019 -0.377607,-0.013 -0.755211,-0.033 -1.132812,-0.059 -0.06511,0.5339 -0.123701,1.0612 -0.175781,1.582 -0.03906,0.5078 -0.0586,1.0222 -0.05859,1.543 -3e-6,0.1953 -3e-6,0.3906 0,0.5859 -3e-6,0.1953 0.01302,0.3972 0.03906,0.6055 0.156248,0.2344 0.35807,0.4167 0.605469,0.5469 0.260413,0.1302 0.533851,0.2344 0.820313,0.3125 0.299475,0.065 0.598953,0.1107 0.898437,0.1367 0.299474,0.026 0.572911,0.052 0.820313,0.078 0.156244,0.013 0.351556,0.026 0.585937,0.039 0.234369,0.013 0.481764,0.019 0.742188,0.019 0.299471,0 0.611971,-0.013 0.9375,-0.039 0.325512,-0.026 0.624991,-0.072 0.898437,-0.1368 0.286449,-0.065 0.540355,-0.1562 0.761719,-0.2734 0.234365,-0.1302 0.403636,-0.293 0.507812,-0.4883 0.130198,-0.2344 0.214834,-0.5013 0.253907,-0.8008 0.03905,-0.3125 0.0716,-0.6054 0.09766,-0.8789 0.03905,-0.2734 0.09113,-0.5013 0.15625,-0.6836 0.07811,-0.1953 0.208322,-0.2929 0.390625,-0.2929 0.143218,0 0.273426,0.1041 0.390625,0.3125 0.117176,0.1953 0.18879,0.4427 0.214844,0.7422 -0.02605,0.3385 -0.05861,0.6835 -0.09766,1.0351 -0.02605,0.3516 -0.07814,0.6966 -0.15625,1.0352 -0.117198,0.5859 -0.351573,1.0547 -0.703125,1.4062 -0.338552,0.3516 -0.742197,0.6185 -1.210937,0.8008 -0.455738,0.1823 -0.950529,0.306 -1.484375,0.3711 -0.533862,0.052 -1.061205,0.078 -1.582031,0.078 -0.390631,0 -0.852871,-0.013 -1.386719,-0.039 -0.533859,-0.026 -1.061202,-0.1107 -1.582031,-0.254 -0.507816,-0.1562 -0.970055,-0.3841 -1.386719,-0.6835 -0.403648,-0.3125 -0.677085,-0.7487 -0.820313,-1.3086 -0.104167,-0.3907 -0.182292,-0.7878 -0.234375,-1.1914 -0.03906,-0.4167 -0.05859,-0.8334 -0.05859,-1.25 -10e-7,-0.8464 0.05859,-1.6928 0.175781,-2.5391 0.117186,-0.8594 0.221353,-1.6797 0.3125,-2.4609 0.03906,-0.3516 0.0651,-0.7097 0.07813,-1.0743 0.02604,-0.3776 0.05859,-0.7487 0.09766,-1.1132 0.05208,-0.3776 0.130207,-0.7422 0.234375,-1.0938 0.104165,-0.3515 0.266925,-0.6771 0.488281,-0.9766 0.208331,-0.2864 0.468748,-0.5208 0.78125,-0.7031 0.312497,-0.1823 0.651038,-0.3255 1.015625,-0.4297 0.364579,-0.1041 0.742183,-0.1757 1.132813,-0.2148 0.40364,-0.052 0.794265,-0.078 1.171875,-0.078 0.833326,0 1.516919,0.078 2.050781,0.2343 0.533845,0.1563 0.963532,0.3646 1.289063,0.625 0.338531,0.2605 0.592437,0.5665 0.761718,0.918 0.169261,0.3516 0.292958,0.7292 0.371094,1.1328 0.07811,0.3907 0.136708,0.7943 0.175781,1.211 0.03905,0.4166 0.104156,0.8268 0.195313,1.2304 0.02603,0.4297 -0.0065,0.8334 -0.09766,1.211 -0.07814,0.3776 -0.319022,0.6836 -0.722657,0.9179"
         style="font-variant:normal;font-stretch:normal;text-align:center;text-anchor:middle;font-family:El Abogado Loco;-inkscape-font-specification:El Abogado Loco"
         id="path3012" />
      <path
         d="m 106.18207,1007.2836 c 0.0391,-0.013 0.0977,-0.059 0.17578,-0.1367 -0.026,0.013 -0.0456,0.026 -0.0586,0.039 -1e-5,0 -0.013,0.01 -0.0391,0.02 -0.10417,0.052 -0.13021,0.078 -0.0781,0.078 m -4.66797,11.1718 c 0.85937,-1.8229 1.48437,-3.5937 1.875,-5.3125 0.40364,-1.7187 0.63802,-3.4635 0.70312,-5.2343 0.013,-0.091 0.0195,-0.1823 0.0195,-0.2735 0.013,-0.091 0.0325,-0.1888 0.0586,-0.2929 -0.026,-0.2735 -0.0586,-0.5469 -0.0977,-0.8203 -0.0391,-0.2865 -0.0911,-0.573 -0.15625,-0.8594 -0.026,-0.091 -0.0716,-0.2344 -0.13672,-0.4297 -0.0521,-0.1953 -0.0781,-0.3646 -0.0781,-0.5078 -0.026,-0.2214 -0.007,-0.4297 0.0586,-0.625 0.0651,-0.2083 0.14974,-0.4037 0.25391,-0.586 l 0.0586,-0.059 c 0.0391,-0.039 0.0846,-0.059 0.13672,-0.059 l 0.0391,0 c 0.11719,0 0.21484,0.059 0.29297,0.1757 0.0911,0.1042 0.16927,0.2409 0.23438,0.4102 0.0651,0.1563 0.12369,0.3385 0.17578,0.5469 0.0521,0.1953 0.0977,0.3776 0.13672,0.5468 -10e-6,10e-5 0.013,-0.013 0.0391,-0.039 l 0,0.019 c 0.013,-0.026 0.0391,-0.059 0.0781,-0.098 l 0.0586,-0.059 c 0.26041,-0.2604 0.61197,-0.4558 1.05469,-0.586 0.4427,-0.1302 0.91145,-0.2148 1.40625,-0.2539 0.49478,-0.052 0.97655,-0.078 1.44531,-0.078 0.48176,0 0.89192,0 1.23047,0 0.20832,0 0.41665,0.01 0.625,0.019 0.20832,0.013 0.39712,0.052 0.5664,0.1172 0.16926,0.065 0.30598,0.1758 0.41016,0.332 0.11718,0.1563 0.17577,0.3711 0.17578,0.6446 -1e-5,0.2344 -0.0586,0.4492 -0.17578,0.6445 -0.1172,0.1823 -0.29298,0.2735 -0.52734,0.2734 l -0.33203,0 c -0.46876,0.013 -0.94402,0.065 -1.42579,0.1563 -0.48178,0.091 -0.95052,0.1953 -1.40625,0.3125 -0.026,0 -0.0521,0.01 -0.0781,0.019 -0.026,0.013 -0.0521,0.02 -0.0781,0.02 -0.22136,0.078 -0.40365,0.1432 -0.54687,0.1953 -0.14324,0.039 -0.27344,0.085 -0.39063,0.1367 -0.11719,0.039 -0.2474,0.091 -0.39062,0.1562 -0.13022,0.052 -0.29949,0.1303 -0.50781,0.2344 l -0.0586,0.059 c 0,0.3386 -0.0195,0.6576 -0.0586,0.957 -0.0391,0.2865 -0.0781,0.573 -0.11719,0.8594 -0.0391,0.2865 -0.0781,0.5729 -0.11719,0.8594 -0.0391,0.2734 -0.0586,0.5729 -0.0586,0.8984 -0.013,0.612 -0.0781,1.2435 -0.19531,1.8946 -0.10417,0.638 -0.24089,1.2825 -0.41016,1.9335 -0.15625,0.6381 -0.33203,1.2761 -0.52734,1.9141 -0.1823,0.638 -0.36459,1.25 -0.54688,1.8359 -0.026,0.052 -0.0391,0.098 -0.0391,0.1368 l -0.11719,0.3515 c -0.0651,0.1823 -0.13021,0.3581 -0.19531,0.5274 -0.0651,0.1562 -0.13021,0.319 -0.19531,0.4883 0,0.052 -0.0195,0.1171 -0.0586,0.1953 -0.026,0.078 -0.0651,0.1562 -0.11718,0.2343 -0.0391,0.091 -0.0781,0.1758 -0.11719,0.2539 -0.026,0.091 -0.0391,0.1628 -0.0391,0.2149 l -1.83594,-2.4024"
         style="font-variant:normal;font-stretch:normal;text-align:center;text-anchor:middle;font-family:El Abogado Loco;-inkscape-font-specification:El Abogado Loco"
         id="path3014" />
    </g>
  </g>
</svg>
